<svg width="142" height="28" viewBox="0 0 142 28" fill="none" xmlns="http://www.w3.org/2000/svg">
<rect width="142" height="28" rx="8" fill="#082F49"/>
<path d="M28.8011 9.91193V8.81818H36.4375V9.91193H33.2358V19H32.0028V9.91193H28.8011ZM40.2756 19.1591C39.5398 19.1591 38.9051 18.9967 38.3714 18.6719C37.8411 18.3438 37.4318 17.8864 37.1435 17.2997C36.8584 16.7098 36.7159 16.0237 36.7159 15.2415C36.7159 14.4593 36.8584 13.7699 37.1435 13.1733C37.4318 12.5734 37.8329 12.1061 38.3466 11.7713C38.8636 11.4332 39.4669 11.2642 40.1562 11.2642C40.554 11.2642 40.9467 11.3305 41.3345 11.4631C41.7223 11.5956 42.0753 11.8111 42.3935 12.1094C42.7116 12.4044 42.9652 12.7955 43.1541 13.2827C43.343 13.7699 43.4375 14.3698 43.4375 15.0824V15.5795H37.5511V14.5653H42.2443C42.2443 14.1345 42.1581 13.75 41.9858 13.4119C41.8168 13.0739 41.5748 12.8071 41.2599 12.6115C40.9484 12.416 40.5805 12.3182 40.1562 12.3182C39.6889 12.3182 39.2846 12.4342 38.9432 12.6662C38.6051 12.8949 38.3449 13.1932 38.1626 13.5611C37.9804 13.929 37.8892 14.3234 37.8892 14.7443V15.4205C37.8892 15.9972 37.9886 16.486 38.1875 16.8871C38.3897 17.2848 38.6697 17.5881 39.0277 17.7969C39.3857 18.0024 39.8016 18.1051 40.2756 18.1051C40.5838 18.1051 40.8622 18.062 41.1108 17.9759C41.3627 17.8864 41.5798 17.7538 41.7621 17.5781C41.9444 17.3991 42.0852 17.1771 42.1847 16.9119L43.3182 17.2301C43.1989 17.6146 42.9983 17.9527 42.7166 18.2443C42.4349 18.5327 42.0869 18.758 41.6726 18.9205C41.2583 19.0795 40.7926 19.1591 40.2756 19.1591ZM45.2223 19V11.3636H46.3558V12.5568H46.4553C46.6143 12.1491 46.8712 11.8326 47.2259 11.6072C47.5805 11.3786 48.0064 11.2642 48.5036 11.2642C49.0073 11.2642 49.4266 11.3786 49.7614 11.6072C50.0994 11.8326 50.3629 12.1491 50.5518 12.5568H50.6314C50.8269 12.1624 51.1203 11.8492 51.5114 11.6172C51.9025 11.3819 52.3714 11.2642 52.9183 11.2642C53.6011 11.2642 54.1596 11.478 54.5938 11.9055C55.0279 12.3298 55.245 12.991 55.245 13.8892V19H54.0717V13.8892C54.0717 13.3258 53.9176 12.9231 53.6094 12.6811C53.3011 12.4392 52.9382 12.3182 52.5206 12.3182C51.9837 12.3182 51.5677 12.4806 51.2727 12.8054C50.9777 13.1269 50.8303 13.5346 50.8303 14.0284V19H49.6371V13.7699C49.6371 13.3357 49.4962 12.986 49.2145 12.7209C48.9328 12.4524 48.5698 12.3182 48.1257 12.3182C47.8208 12.3182 47.5357 12.3994 47.2706 12.5618C47.0088 12.7242 46.7966 12.9496 46.6342 13.2379C46.4751 13.523 46.3956 13.8527 46.3956 14.2273V19H45.2223ZM57.3903 21.8636V11.3636H58.5238V12.5767H58.663C58.7492 12.4441 58.8685 12.2751 59.021 12.0696C59.1767 11.8608 59.3988 11.6752 59.6871 11.5128C59.9788 11.3471 60.3732 11.2642 60.8704 11.2642C61.5134 11.2642 62.0801 11.425 62.5707 11.7464C63.0612 12.0679 63.444 12.5237 63.7191 13.1136C63.9942 13.7036 64.1317 14.3996 64.1317 15.2017C64.1317 16.0104 63.9942 16.7114 63.7191 17.3047C63.444 17.8946 63.0629 18.352 62.5756 18.6768C62.0884 18.9983 61.5266 19.1591 60.8903 19.1591C60.3997 19.1591 60.007 19.0779 59.712 18.9155C59.417 18.7498 59.19 18.5625 59.0309 18.3537C58.8718 18.1416 58.7492 17.9659 58.663 17.8267H58.5636V21.8636H57.3903ZM58.5437 15.1818C58.5437 15.7585 58.6282 16.2673 58.7972 16.7081C58.9663 17.1456 59.2132 17.4886 59.538 17.7372C59.8628 17.9825 60.2605 18.1051 60.7312 18.1051C61.2217 18.1051 61.631 17.9759 61.9592 17.7173C62.2906 17.4555 62.5392 17.1042 62.7049 16.6634C62.8739 16.2192 62.9585 15.7254 62.9585 15.1818C62.9585 14.6449 62.8756 14.161 62.7099 13.7301C62.5475 13.2959 62.3005 12.9529 61.9691 12.701C61.641 12.4458 61.2283 12.3182 60.7312 12.3182C60.2539 12.3182 59.8529 12.4392 59.5281 12.6811C59.2032 12.9197 58.958 13.2545 58.7923 13.6854C58.6265 14.1129 58.5437 14.6117 58.5437 15.1818ZM67.0948 8.81818V19H65.9215V8.81818H67.0948ZM71.4909 19.179C71.007 19.179 70.5679 19.0878 70.1735 18.9055C69.7791 18.7199 69.4658 18.4531 69.2338 18.1051C69.0018 17.7538 68.8858 17.3295 68.8858 16.8324C68.8858 16.3949 68.972 16.0402 69.1444 15.7685C69.3167 15.4934 69.5471 15.2779 69.8354 15.1222C70.1238 14.9664 70.4419 14.8504 70.79 14.7741C71.1413 14.6946 71.4943 14.6316 71.8489 14.5852C72.3129 14.5256 72.6891 14.4808 72.9775 14.451C73.2691 14.4179 73.4812 14.3632 73.6138 14.2869C73.7497 14.2107 73.8176 14.0781 73.8176 13.8892V13.8494C73.8176 13.3589 73.6834 12.9777 73.415 12.706C73.1498 12.4342 72.7471 12.2983 72.2069 12.2983C71.6467 12.2983 71.2076 12.4209 70.8894 12.6662C70.5712 12.9115 70.3475 13.1733 70.2182 13.4517L69.1046 13.054C69.3034 12.59 69.5686 12.2287 69.9 11.9702C70.2348 11.7083 70.5994 11.526 70.9938 11.4233C71.3915 11.3172 71.7826 11.2642 72.1671 11.2642C72.4123 11.2642 72.6941 11.294 73.0123 11.3537C73.3337 11.41 73.6436 11.5277 73.9419 11.7067C74.2435 11.8857 74.4938 12.1558 74.6926 12.517C74.8915 12.8783 74.9909 13.3622 74.9909 13.9688V19H73.8176V17.9659H73.758C73.6784 18.1316 73.5459 18.3089 73.3603 18.4979C73.1747 18.6868 72.9277 18.8475 72.6195 18.9801C72.3113 19.1127 71.9351 19.179 71.4909 19.179ZM71.6699 18.125C72.1339 18.125 72.525 18.0339 72.8432 17.8516C73.1647 17.6693 73.4067 17.4339 73.5691 17.1456C73.7348 16.8572 73.8176 16.554 73.8176 16.2358V15.1619C73.7679 15.2216 73.6586 15.2763 73.4895 15.326C73.3238 15.3724 73.1316 15.4138 72.9128 15.4503C72.6974 15.4834 72.4869 15.5133 72.2814 15.5398C72.0792 15.563 71.9152 15.5829 71.7892 15.5994C71.4843 15.6392 71.1993 15.7038 70.9341 15.7933C70.6723 15.8795 70.4602 16.0104 70.2978 16.1861C70.1387 16.3584 70.0591 16.5937 70.0591 16.892C70.0591 17.2997 70.2099 17.608 70.5115 17.8168C70.8165 18.0223 71.2026 18.125 71.6699 18.125ZM80.4535 11.3636V12.358H76.4961V11.3636H80.4535ZM77.6495 9.53409H78.8228V16.8125C78.8228 17.1439 78.8709 17.3925 78.967 17.5582C79.0664 17.7206 79.1924 17.83 79.3448 17.8864C79.5006 17.9394 79.6647 17.9659 79.837 17.9659C79.9663 17.9659 80.0723 17.9593 80.1552 17.946C80.238 17.9295 80.3043 17.9162 80.354 17.9062L80.5927 18.9602C80.5131 18.9901 80.4021 19.0199 80.2596 19.0497C80.1171 19.0829 79.9364 19.0994 79.7177 19.0994C79.3862 19.0994 79.0614 19.0282 78.7433 18.8857C78.4284 18.7431 78.1665 18.526 77.9577 18.2344C77.7522 17.9427 77.6495 17.5748 77.6495 17.1307V9.53409ZM85.3381 19.1591C84.6023 19.1591 83.9676 18.9967 83.4339 18.6719C82.9036 18.3438 82.4943 17.8864 82.206 17.2997C81.9209 16.7098 81.7784 16.0237 81.7784 15.2415C81.7784 14.4593 81.9209 13.7699 82.206 13.1733C82.4943 12.5734 82.8954 12.1061 83.4091 11.7713C83.9261 11.4332 84.5294 11.2642 85.2188 11.2642C85.6165 11.2642 86.0092 11.3305 86.397 11.4631C86.7848 11.5956 87.1378 11.8111 87.456 12.1094C87.7741 12.4044 88.0277 12.7955 88.2166 13.2827C88.4055 13.7699 88.5 14.3698 88.5 15.0824V15.5795H82.6136V14.5653H87.3068C87.3068 14.1345 87.2206 13.75 87.0483 13.4119C86.8793 13.0739 86.6373 12.8071 86.3224 12.6115C86.0109 12.416 85.643 12.3182 85.2188 12.3182C84.7514 12.3182 84.3471 12.4342 84.0057 12.6662C83.6676 12.8949 83.4074 13.1932 83.2251 13.5611C83.0429 13.929 82.9517 14.3234 82.9517 14.7443V15.4205C82.9517 15.9972 83.0511 16.486 83.25 16.8871C83.4522 17.2848 83.7322 17.5881 84.0902 17.7969C84.4482 18.0024 84.8641 18.1051 85.3381 18.1051C85.6463 18.1051 85.9247 18.062 86.1733 17.9759C86.4252 17.8864 86.6423 17.7538 86.8246 17.5781C87.0069 17.3991 87.1477 17.1771 87.2472 16.9119L88.3807 17.2301C88.2614 17.6146 88.0608 17.9527 87.7791 18.2443C87.4974 18.5327 87.1494 18.758 86.7351 18.9205C86.3208 19.0795 85.8551 19.1591 85.3381 19.1591ZM102.455 8.81818V19H101.262L95.7138 11.0057H95.6143V19H94.3814V8.81818H95.5746L101.143 16.8324H101.242V8.81818H102.455ZM107.866 19.1591C107.176 19.1591 106.571 18.995 106.051 18.6669C105.534 18.3388 105.13 17.8797 104.838 17.2898C104.55 16.6998 104.405 16.0104 104.405 15.2216C104.405 14.4261 104.55 13.7318 104.838 13.1385C105.13 12.5452 105.534 12.0845 106.051 11.7564C106.571 11.4283 107.176 11.2642 107.866 11.2642C108.555 11.2642 109.158 11.4283 109.675 11.7564C110.196 12.0845 110.6 12.5452 110.888 13.1385C111.18 13.7318 111.326 14.4261 111.326 15.2216C111.326 16.0104 111.18 16.6998 110.888 17.2898C110.6 17.8797 110.196 18.3388 109.675 18.6669C109.158 18.995 108.555 19.1591 107.866 19.1591ZM107.866 18.1051C108.389 18.1051 108.82 17.9709 109.158 17.7024C109.496 17.4339 109.747 17.081 109.909 16.6435C110.071 16.206 110.153 15.732 110.153 15.2216C110.153 14.7112 110.071 14.2356 109.909 13.7947C109.747 13.3539 109.496 12.9976 109.158 12.7259C108.82 12.4541 108.389 12.3182 107.866 12.3182C107.342 12.3182 106.911 12.4541 106.573 12.7259C106.235 12.9976 105.985 13.3539 105.822 13.7947C105.66 14.2356 105.579 14.7112 105.579 15.2216C105.579 15.732 105.66 16.206 105.822 16.6435C105.985 17.081 106.235 17.4339 106.573 17.7024C106.911 17.9709 107.342 18.1051 107.866 18.1051ZM116.438 11.3636V12.358H112.48V11.3636H116.438ZM113.634 9.53409H114.807V16.8125C114.807 17.1439 114.855 17.3925 114.951 17.5582C115.051 17.7206 115.177 17.83 115.329 17.8864C115.485 17.9394 115.649 17.9659 115.821 17.9659C115.951 17.9659 116.057 17.9593 116.14 17.946C116.222 17.9295 116.289 17.9162 116.338 17.9062L116.577 18.9602C116.498 18.9901 116.386 19.0199 116.244 19.0497C116.101 19.0829 115.921 19.0994 115.702 19.0994C115.371 19.0994 115.046 19.0282 114.728 18.8857C114.413 18.7431 114.151 18.526 113.942 18.2344C113.737 17.9427 113.634 17.5748 113.634 17.1307V9.53409ZM118.203 19V11.3636H119.376V19H118.203ZM118.799 10.0909C118.571 10.0909 118.373 10.013 118.208 9.85724C118.045 9.70147 117.964 9.5142 117.964 9.29545C117.964 9.0767 118.045 8.88944 118.208 8.73366C118.373 8.57789 118.571 8.5 118.799 8.5C119.028 8.5 119.224 8.57789 119.386 8.73366C119.552 8.88944 119.635 9.0767 119.635 9.29545C119.635 9.5142 119.552 9.70147 119.386 9.85724C119.224 10.013 119.028 10.0909 118.799 10.0909ZM124.627 19.1591C123.938 19.1591 123.333 18.995 122.813 18.6669C122.296 18.3388 121.891 17.8797 121.6 17.2898C121.311 16.6998 121.167 16.0104 121.167 15.2216C121.167 14.4261 121.311 13.7318 121.6 13.1385C121.891 12.5452 122.296 12.0845 122.813 11.7564C123.333 11.4283 123.938 11.2642 124.627 11.2642C125.317 11.2642 125.92 11.4283 126.437 11.7564C126.957 12.0845 127.362 12.5452 127.65 13.1385C127.942 13.7318 128.088 14.4261 128.088 15.2216C128.088 16.0104 127.942 16.6998 127.65 17.2898C127.362 17.8797 126.957 18.3388 126.437 18.6669C125.92 18.995 125.317 19.1591 124.627 19.1591ZM124.627 18.1051C125.151 18.1051 125.582 17.9709 125.92 17.7024C126.258 17.4339 126.508 17.081 126.671 16.6435C126.833 16.206 126.914 15.732 126.914 15.2216C126.914 14.7112 126.833 14.2356 126.671 13.7947C126.508 13.3539 126.258 12.9976 125.92 12.7259C125.582 12.4541 125.151 12.3182 124.627 12.3182C124.104 12.3182 123.673 12.4541 123.335 12.7259C122.997 12.9976 122.746 13.3539 122.584 13.7947C122.422 14.2356 122.34 14.7112 122.34 15.2216C122.34 15.732 122.422 16.206 122.584 16.6435C122.746 17.081 122.997 17.4339 123.335 17.7024C123.673 17.9709 124.104 18.1051 124.627 18.1051ZM131.052 14.4062V19H129.879V11.3636H131.012V12.5568H131.112C131.29 12.169 131.562 11.8575 131.927 11.6222C132.291 11.3835 132.762 11.2642 133.339 11.2642C133.856 11.2642 134.308 11.3703 134.696 11.5824C135.084 11.7912 135.385 12.1094 135.601 12.5369C135.816 12.9612 135.924 13.4981 135.924 14.1477V19H134.751V14.2273C134.751 13.6274 134.595 13.16 134.283 12.8253C133.972 12.4872 133.544 12.3182 133.001 12.3182C132.626 12.3182 132.291 12.3994 131.996 12.5618C131.705 12.7242 131.474 12.9612 131.305 13.2727C131.136 13.5843 131.052 13.9621 131.052 14.4062Z" fill="white"/>
<path d="M10.985 10.1039C11.358 10.4069 11.498 10.3839 12.199 10.3369L18.8065 9.94038C18.9465 9.94038 18.83 9.80038 18.7835 9.77738L17.6855 8.98388C17.4755 8.82088 17.195 8.63388 16.658 8.68038L10.2605 9.14738C10.0275 9.17038 9.9805 9.28738 10.0735 9.38038L10.985 10.1039ZM11.3815 11.6439V18.5959C11.3815 18.9694 11.568 19.1094 11.9885 19.0859L19.25 18.6659C19.6705 18.6429 19.7175 18.3859 19.7175 18.0824V11.1769C19.7175 10.8739 19.601 10.7104 19.3435 10.7334L11.755 11.1769C11.475 11.2004 11.3815 11.3409 11.3815 11.6439ZM18.55 12.0164C18.5965 12.2264 18.55 12.4364 18.34 12.4604L17.99 12.5304V17.6624C17.686 17.8259 17.406 17.9194 17.1725 17.9194C16.7985 17.9194 16.705 17.8024 16.425 17.4529L14.1365 13.8599V17.3359L14.8605 17.4999C14.8605 17.4999 14.8605 17.9199 14.2765 17.9199L12.6655 18.0129C12.619 17.9199 12.6655 17.6864 12.829 17.6399L13.249 17.5234V12.9269L12.6665 12.8799C12.6195 12.6699 12.7365 12.3669 13.063 12.3434L14.791 12.2269L17.173 15.8664V12.6464L16.5655 12.5769C16.519 12.3199 16.7055 12.1334 16.939 12.1104L18.55 12.0164ZM9.7235 8.51738L16.3785 8.02738C17.1955 7.95738 17.406 8.00388 17.9195 8.37738L20.044 9.87038C20.394 10.1269 20.511 10.1969 20.511 10.4769V18.6659C20.511 19.1789 20.3245 19.4829 19.671 19.5289L11.942 19.9959C11.452 20.0194 11.218 19.9494 10.961 19.6224L9.3965 17.5924C9.1165 17.2189 9 16.9394 9 16.6124V9.33338C9 8.91388 9.187 8.56338 9.7235 8.51738Z" fill="white"/>
</svg>
