<svg width="74" height="43" viewBox="0 0 74 43" fill="none" xmlns="http://www.w3.org/2000/svg">
<path d="M4.31109 4.38307C5.12119 5.01431 5.42525 4.9664 6.9477 4.86848L21.2981 4.04244C21.6022 4.04244 21.3491 3.75078 21.2482 3.70286L18.8635 2.04974C18.4074 1.71015 17.7982 1.32057 16.6319 1.41745L2.7376 2.39036C2.23156 2.43828 2.12948 2.68203 2.33147 2.87578L4.31109 4.38307ZM5.17223 7.59139V22.0747C5.17223 22.8528 5.57727 23.1445 6.49053 23.0955L22.2613 22.2205C23.1746 22.1726 23.2766 21.6372 23.2766 21.0049V6.61848C23.2766 5.98723 23.0236 5.6466 22.4644 5.69452L5.98341 6.61848C5.37529 6.66744 5.17223 6.96014 5.17223 7.59139ZM20.741 8.36743C20.842 8.80493 20.741 9.24243 20.2849 9.29243L19.5248 9.43826V20.1299C18.8646 20.4705 18.2565 20.6653 17.7493 20.6653C16.9371 20.6653 16.734 20.4216 16.1259 19.6934L11.1556 12.208V19.4497L12.728 19.7914C12.728 19.7914 12.728 20.6664 11.4597 20.6664L7.96086 20.8601C7.85987 20.6664 7.96086 20.1799 8.31596 20.083L9.22813 19.8403V10.2643L7.96304 10.1664C7.86096 9.72889 8.11506 9.09764 8.82417 9.04868L12.5771 8.80597L17.7504 16.3882V9.67993L16.431 9.53514C16.33 8.99972 16.7351 8.61118 17.2422 8.56326L20.741 8.36743ZM1.57132 1.07786L16.0249 0.0570332C17.7993 -0.0887999 18.2564 0.00807494 19.3717 0.786198L23.9858 3.89661C24.7459 4.43098 25 4.57681 25 5.16015V22.2205C25 23.2893 24.595 23.9226 23.1757 24.0184L6.38954 24.9914C5.32534 25.0403 4.81713 24.8945 4.25897 24.2132L0.861133 19.9841C0.253019 19.2059 0 18.6237 0 17.9424V2.77786C0 1.9039 0.406133 1.1737 1.57132 1.07786Z" fill="white"/>
<path d="M31.4716 23.1918C30.5128 23.1918 29.6818 22.9808 28.9787 22.5589C28.2756 22.1371 27.7301 21.5469 27.3423 20.7884C26.9588 20.0298 26.767 19.1435 26.767 18.1293C26.767 17.1151 26.9588 16.2266 27.3423 15.4638C27.7301 14.701 28.2756 14.1087 28.9787 13.6868C29.6818 13.2649 30.5128 13.054 31.4716 13.054C32.4304 13.054 33.2614 13.2649 33.9645 13.6868C34.6676 14.1087 35.2109 14.701 35.5945 15.4638C35.9822 16.2266 36.1761 17.1151 36.1761 18.1293C36.1761 19.1435 35.9822 20.0298 35.5945 20.7884C35.2109 21.5469 34.6676 22.1371 33.9645 22.5589C33.2614 22.9808 32.4304 23.1918 31.4716 23.1918ZM31.4844 21.3381C32.0043 21.3381 32.4389 21.1953 32.7884 20.9098C33.1378 20.62 33.3977 20.2322 33.5682 19.7464C33.7429 19.2607 33.8303 18.7195 33.8303 18.1229C33.8303 17.522 33.7429 16.9787 33.5682 16.4929C33.3977 16.0028 33.1378 15.6129 32.7884 15.3232C32.4389 15.0334 32.0043 14.8885 31.4844 14.8885C30.9517 14.8885 30.5085 15.0334 30.1548 15.3232C29.8054 15.6129 29.5433 16.0028 29.3686 16.4929C29.1982 16.9787 29.1129 17.522 29.1129 18.1229C29.1129 18.7195 29.1982 19.2607 29.3686 19.7464C29.5433 20.2322 29.8054 20.62 30.1548 20.9098C30.5085 21.1953 30.9517 21.3381 31.4844 21.3381ZM43.0428 13.1818V14.9716H37.3986V13.1818H43.0428ZM38.7921 10.8295H41.106V20.0469C41.106 20.358 41.1529 20.5966 41.2466 20.7628C41.3446 20.9247 41.4725 21.0355 41.6301 21.0952C41.7878 21.1548 41.9625 21.1847 42.1543 21.1847C42.2992 21.1847 42.4313 21.174 42.5506 21.1527C42.6742 21.1314 42.7679 21.1122 42.8319 21.0952L43.2218 22.9041C43.0982 22.9467 42.9213 22.9936 42.6912 23.0447C42.4654 23.0959 42.1884 23.1257 41.8603 23.1342C41.2807 23.1513 40.7587 23.0639 40.2942 22.8722C39.8297 22.6761 39.4611 22.3736 39.1884 21.9645C38.9199 21.5554 38.7878 21.044 38.7921 20.4304V10.8295ZM44.978 23V13.1818H47.2919V23H44.978ZM46.1413 11.7884C45.7749 11.7884 45.4595 11.6669 45.1953 11.424C44.9311 11.1768 44.799 10.8807 44.799 10.5355C44.799 10.1861 44.9311 9.88991 45.1953 9.64702C45.4595 9.39986 45.7749 9.27628 46.1413 9.27628C46.5121 9.27628 46.8274 9.39986 47.0874 9.64702C47.3516 9.88991 47.4837 10.1861 47.4837 10.5355C47.4837 10.8807 47.3516 11.1768 47.0874 11.424C46.8274 11.6669 46.5121 11.7884 46.1413 11.7884ZM53.954 23.1918C52.9952 23.1918 52.1642 22.9808 51.4611 22.5589C50.758 22.1371 50.2125 21.5469 49.8248 20.7884C49.4412 20.0298 49.2495 19.1435 49.2495 18.1293C49.2495 17.1151 49.4412 16.2266 49.8248 15.4638C50.2125 14.701 50.758 14.1087 51.4611 13.6868C52.1642 13.2649 52.9952 13.054 53.954 13.054C54.9128 13.054 55.7438 13.2649 56.4469 13.6868C57.15 14.1087 57.6934 14.701 58.0769 15.4638C58.4647 16.2266 58.6586 17.1151 58.6586 18.1293C58.6586 19.1435 58.4647 20.0298 58.0769 20.7884C57.6934 21.5469 57.15 22.1371 56.4469 22.5589C55.7438 22.9808 54.9128 23.1918 53.954 23.1918ZM53.9668 21.3381C54.4867 21.3381 54.9213 21.1953 55.2708 20.9098C55.6202 20.62 55.8801 20.2322 56.0506 19.7464C56.2253 19.2607 56.3127 18.7195 56.3127 18.1229C56.3127 17.522 56.2253 16.9787 56.0506 16.4929C55.8801 16.0028 55.6202 15.6129 55.2708 15.3232C54.9213 15.0334 54.4867 14.8885 53.9668 14.8885C53.4341 14.8885 52.9909 15.0334 52.6373 15.3232C52.2878 15.6129 52.0257 16.0028 51.851 16.4929C51.6806 16.9787 51.5953 17.522 51.5953 18.1229C51.5953 18.7195 51.6806 19.2607 51.851 19.7464C52.0257 20.2322 52.2878 20.62 52.6373 20.9098C52.9909 21.1953 53.4341 21.3381 53.9668 21.3381ZM62.9364 17.2472V23H60.6225V13.1818H62.8342V14.8501H62.9492C63.1751 14.3004 63.5352 13.8636 64.0295 13.5398C64.5281 13.2159 65.1438 13.054 65.8768 13.054C66.5543 13.054 67.1445 13.1989 67.6474 13.4886C68.1545 13.7784 68.5465 14.1982 68.8235 14.7479C69.1048 15.2976 69.2433 15.9645 69.239 16.7486V23H66.9251V17.1065C66.9251 16.4503 66.7546 15.9368 66.4137 15.5661C66.0771 15.1953 65.6104 15.0099 65.0138 15.0099C64.609 15.0099 64.2489 15.0994 63.9336 15.2784C63.6225 15.4531 63.3775 15.7067 63.1985 16.0391C63.0238 16.3714 62.9364 16.7741 62.9364 17.2472Z" fill="white"/>
<path d="M13.2912 39V25.9091H21.8054V27.897H15.6626V31.451H21.3643V33.4389H15.6626V37.0121H21.8565V39H13.2912ZM34.9826 25.9091V39H32.8732L26.7049 30.0831H26.5962V39H24.2248V25.9091H26.3469L32.5089 34.8324H32.6239V25.9091H34.9826ZM37.5666 39V25.9091H46.0808V27.897H39.938V31.451H45.6397V33.4389H39.938V37.0121H46.1319V39H37.5666ZM48.5002 25.9091H51.4022L55.2885 35.3949H55.4419L59.3283 25.9091H62.2303V39H59.9547V30.0064H59.8333L56.2154 38.9616H54.5151L50.8972 29.9872H50.7757V39H48.5002V25.9091Z" fill="white"/>
</svg>
