<svg width="50" height="49" viewBox="0 0 50 49" fill="none" xmlns="http://www.w3.org/2000/svg">
<path d="M21.1958 3.70819C22.3932 0.0229502 27.6068 0.0229597 28.8042 3.7082L31.9599 13.4205C32.4954 15.0686 34.0313 16.1844 35.7642 16.1844L45.9763 16.1844C49.8511 16.1844 51.4622 21.1429 48.3274 23.4205L40.0656 29.423C38.6637 30.4416 38.0771 32.247 38.6125 33.8951L41.7683 43.6074C42.9657 47.2926 38.7477 50.3571 35.6129 48.0795L27.3511 42.077C25.9492 41.0584 24.0508 41.0584 22.6489 42.077L14.3871 48.0795C11.2522 50.3571 7.03433 47.2926 8.23174 43.6074L11.3875 33.8951C11.9229 32.247 11.3363 30.4416 9.93436 29.423L1.67261 23.4205C-1.46225 21.1429 0.14886 16.1844 4.02375 16.1844L14.2358 16.1844C15.9687 16.1844 17.5046 15.0686 18.0401 13.4205L21.1958 3.70819Z" fill="#01B8A8"/>
</svg>
